<?xml version="1.0" standalone="no"?>
<!DOCTYPE svg PUBLIC "-//W3C//DTD SVG 20010904//EN"
 "http://www.w3.org/TR/2001/REC-SVG-20010904/DTD/svg10.dtd">
<svg version="1.0" xmlns="http://www.w3.org/2000/svg"
 width="1230.000000pt" height="1280.000000pt" viewBox="0 0 1230.000000 1280.000000"
 preserveAspectRatio="xMidYMid meet">
<metadata>
Created by potrace 1.15, written by Peter Selinger 2001-2017
</metadata>
<g transform="translate(0.000000,1280.000000) scale(0.100000,-0.100000)"
fill="#ffffff" stroke="none">
<path d="M5732 12790 c-434 -55 -827 -297 -1066 -655 -336 -504 -336 -1149 1
-1659 59 -90 138 -173 713 -751 1116 -1122 1819 -1830 1820 -1832 0 -2 -1333
-4 -2962 -6 l-2963 -2 -90 -22 c-308 -74 -550 -208 -757 -419 -205 -210 -335
-455 -399 -754 -33 -151 -33 -428 0 -580 87 -407 308 -735 643 -957 154 -101
315 -169 513 -216 l90 -22 2963 -2 c1629 -2 2962 -6 2962 -10 0 -4 -546 -554
-1214 -1223 -668 -668 -1229 -1233 -1247 -1255 -136 -171 -237 -381 -288 -605
-125 -541 73 -1119 504 -1475 533 -441 1294 -458 1848 -41 54 40 933 913 2603
2586 1387 1389 2539 2545 2559 2570 91 107 189 281 239 419 67 186 91 322 91
521 0 199 -24 335 -91 521 -49 137 -147 309 -238 419 -21 25 -1175 1183 -2564
2573 -1727 1728 -2554 2549 -2612 2592 -164 124 -386 222 -600 265 -120 25
-344 34 -458 20z"/>
</g>
</svg>
